<svg xmlns="http://www.w3.org/2000/svg" viewBox="0 0 367.83 142.27"><path class="cls-1" d="M286.28,80.71c-2.55,0-4.3-1.55-4.3-4.7V61.7h9.21V54.64h-9.14v-9.4l-8.19.87v8.53h-6.18V61.7h6.18V76c0,8.26,4.7,12.36,11.89,12.09a18.37,18.37,0,0,0,6.78-1.41l-2.28-7A9.31,9.31,0,0,1,286.28,80.71Zm-39.83-26.8c-10.55,0-17.13,7.79-17.13,17.26s6.45,17.26,17.2,17.26,17.26-7.72,17.26-17.26S257,53.91,246.45,53.91Zm.07,27c-6,0-9-4.7-9-9.74s3.08-9.81,9-9.81c5.5,0,9,4.84,9,9.81S252.49,80.91,246.52,80.91ZM353.66,67.34c-4.23-.27-6.18-1.48-6.18-3.63s2.15-3.29,6-3.29a11.16,11.16,0,0,1,8.2,3L366.29,58c-3.83-3.36-7.73-4.36-12.9-4.36-6.05,0-14,2.68-14,10.34s7.45,9.81,13.7,10.28c4.7.27,6.58,1.55,6.58,3.83s-2.88,3.69-6,3.63a16.45,16.45,0,0,1-11.42-4.64l-4,5.85c4.83,5,10.07,5.91,15.31,5.91,9.47,0,14.24-5,14.24-10.89C367.83,69.15,359.91,67.74,353.66,67.34ZM45.47,75.5h12v8.33a15.62,15.62,0,0,1-10.61,3.76c-11.69,0-16.19-8-16.19-15.72,0-9.67,6.11-17.33,16.19-17.33a18,18,0,0,1,12,4.71l5.51-5.65a24.83,24.83,0,0,0-17.46-7.18C30.29,46.42,22,58.64,22,71.87c0,12.36,7.19,24,24.86,24a23.43,23.43,0,0,0,18.74-8.47V67.58H45.47ZM96.33,46.82c-13.64,0-24.39,9.94-24.39,24.79,0,12.36,7.66,24.25,24.18,24.25s24-12.16,24.12-24.32S112.38,47,96.33,46.82Zm-.21,40.91c-11.08,0-15.24-8.26-15.45-16-.26-9.34,5.65-16.86,15.66-16.86,10.81.2,15.31,8.93,15.18,16.79S107.21,87.73,96.12,87.73ZM112.21,0H30.06A30.15,30.15,0,0,0,0,30.06v82.16a30.13,30.13,0,0,0,30.06,30.05h82.15a30.11,30.11,0,0,0,30.06-30.05V30.06A30.13,30.13,0,0,0,112.21,0Zm20.45,112.22a20.5,20.5,0,0,1-20.45,20.43H30.06A20.49,20.49,0,0,1,9.62,112.22V30.06A20.49,20.49,0,0,1,30.06,9.62h82.15a20.5,20.5,0,0,1,20.45,20.44Zm81.68-40.75c0,5.07-3.43,9.31-8.46,9.31-5.24,0-8-3.83-8-8.87V54.58h-8.19V72c0,10.27,5.77,16.25,13.7,16.25,4.63,0,7.79-1.61,11.22-5l.54,4.43h7.32V54.58h-8.13ZM323.9,59.15c-1.88-3.3-6.11-5.38-10.55-5.38-9.67-.07-17.26,5.91-17.26,17.33,0,11.62,7.26,17.67,17.06,17.6,3.7-.06,8.87-2,10.75-5.84l.4,4.83H332V54.58h-7.86Zm-9.81,22c-5.44,0-9.8-3.76-9.8-10.08s4.36-10,9.8-10C327,61.09,327,81.18,314.09,81.18Zm-142.2-.34c-5.11,0-9.41-3.36-9.41-9.67,0-5.78,4-9.81,9.54-9.81A10.1,10.1,0,0,1,178.67,64l5.17-5.44a15.7,15.7,0,0,0-12-4.9c-9.61,0-17.6,5.77-17.6,17.53s8,17.53,17.6,17.53a17,17,0,0,0,12.76-5.24l-5.51-5.37A10,10,0,0,1,171.89,80.84Z" fill="#ee2a7b"/></svg>